<svg xmlns="http://www.w3.org/2000/svg" xmlns:xlink="http://www.w3.org/1999/xlink" width="290.71" height="127.89" viewBox="0 0 290.71 127.89"><defs><radialGradient id="a" cx="98.3" cy="2407.75" r="33.43" gradientTransform="translate(-88.4 -693.81) scale(1.47 0.34)" gradientUnits="userSpaceOnUse"><stop offset="0.04" stop-color="#afb0b2"/><stop offset="0.18" stop-color="#b8b9bb" stop-opacity="0.88"/><stop offset="0.48" stop-color="#d0d1d2" stop-opacity="0.58"/><stop offset="0.9" stop-color="#f7f7f7" stop-opacity="0.1"/><stop offset="0.99" stop-color="#fff" stop-opacity="0"/></radialGradient><linearGradient id="b" x1="19.93" y1="13.93" x2="61.53" y2="40.76" gradientUnits="userSpaceOnUse"><stop offset="0" stop-color="#fff"/><stop offset="1" stop-color="#5fb8e8"/></linearGradient><linearGradient id="c" x1="85.52" y1="106.06" x2="62.01" y2="76.22" xlink:href="#b"/><radialGradient id="d" cx="55.7" cy="55.3" r="55.4" gradientUnits="userSpaceOnUse"><stop offset="0" stop-color="#5fb8e8"/><stop offset="1" stop-color="#223369"/></radialGradient></defs><title>Logo ATG Europe</title><g style="isolation:isolate"><path d="M105.43,116.64c0,6.21-22,11.25-49.19,11.25s-49.18-5-49.18-11.25,22-11.25,49.18-11.25S105.43,110.42,105.43,116.64Z" transform="translate(-0.21)" fill="url(#a)"/><path d="M157.34,11.91H167.9l25.23,58H178.71l-5-12.29H151.2L146.36,69.9H132.27Zm4.91,16.87-7,18h14.17Z" transform="translate(-0.21)" fill="#223369"/><path d="M202.63,23.21H186.08V11.91H232v11.3H215.4V69.9H202.63Z" transform="translate(-0.21)" fill="#223369"/><path d="M290.91,65.8a52,52,0,0,1-24.32,5.57c-18.1,0-31.29-11.87-31.29-30.47s13.19-30.46,31.29-30.46c9.17,0,17.28,2,23.1,7.45l-9,9.83c-3.44-3.61-7.62-5.49-14.09-5.49-10.9,0-18,7.86-18,18.67s7.12,18.68,18,18.68a25,25,0,0,0,12-2.87V47.29h-10.4V35.5h22.68Z" transform="translate(-0.21)" fill="#223369"/><path d="M156.25,95.61H139.14q0,5.28,8.62,5.28a43.32,43.32,0,0,0,7.92-.74v5.23a44.23,44.23,0,0,1-8.92.74q-14.22,0-14.22-13.37,0-12.78,13-12.78T156.25,95.61Zm-17.11-4.83h10.91q.34-5.62-5.23-5.63Q139.59,85.15,139.14,90.78Z" transform="translate(-0.21)" fill="#939598"/><path d="M185.74,80v26.15h-5.16l-.79-3.33a16.6,16.6,0,0,1-9.57,3.33q-9,0-9-9.74V80h6.6V96.46c0,2.89,1.42,4.33,4.28,4.33q3.47,0,7-3.31V80Z" transform="translate(-0.21)" fill="#939598"/><path d="M192,106.12V80h5.11l.82,3.34A10.4,10.4,0,0,1,205.16,80V85.3a8.68,8.68,0,0,0-6.6,3.31v17.51Z" transform="translate(-0.21)" fill="#939598"/><path d="M207.28,93.05q0-13.32,13.2-13.33t13.2,13.33q0,13.29-13.2,13.3T207.28,93.05Zm13.2,8.09q6.6,0,6.6-8.19,0-8-6.6-8t-6.6,8Q213.88,101.14,220.48,101.14Z" transform="translate(-0.21)" fill="#939598"/><path d="M238.29,81A57.45,57.45,0,0,1,249.79,80q13.83,0,13.83,12.43,0,13.72-12.66,13.72a15.4,15.4,0,0,1-6.07-1.24v10.71h-6.6Zm6.6,18.26a13.37,13.37,0,0,0,6.05,1.34q6.15,0,6.15-8.29,0-7-7-7a30,30,0,0,0-5.18.35Z" transform="translate(-0.21)" fill="#939598"/><path d="M290.31,95.61H273.2q0,5.28,8.62,5.28a43.32,43.32,0,0,0,7.92-.74v5.23a44.23,44.23,0,0,1-8.92.74q-14.22,0-14.22-13.37,0-12.78,13-12.78T290.31,95.61ZM273.2,90.78h10.91q.34-5.62-5.23-5.63Q273.65,85.15,273.2,90.78Z" transform="translate(-0.21)" fill="#939598"/><path d="M85.89,15.51c-.62,4.52-4,16.94-22.2,20.58C45.83,39.66,26.4,50.53,26.11,65.33,48.28,88.31,92,47.26,85.89,15.51Z" transform="translate(-0.21)" fill="none"/><path d="M93.23,65.21c-5-7.18-17.3-6.24-28.72,7.42a67.47,67.47,0,0,0-14,29C69.37,112.38,74.9,71.9,93.23,65.21Z" transform="translate(-0.21)" fill="none"/><path d="M28.39,26.61C21,39.75,16.65,54.55,25.22,64.37c.29.34.59.65.89,1,.29-14.8,19.72-25.67,37.58-29.24C81.89,32.45,85.27,20,85.89,15.51A29.48,29.48,0,0,0,83,7.16,55.16,55.16,0,0,0,59,.1C58.56.2,40.88,4.43,28.39,26.61Z" transform="translate(-0.21)" fill="url(#b)"/><path d="M94.85,79.77c1.49-6.27.69-11.27-1.62-14.56C74.9,71.9,69.37,112.38,50.54,101.6a69.44,69.44,0,0,0-1.33,9,55.71,55.71,0,0,0,6.49.39,56.32,56.32,0,0,0,9.25-.78C70.91,107.35,90.81,96.65,94.85,79.77Z" transform="translate(-0.21)" fill="url(#c)"/><path d="M84.42,8c-.48-.29-1-.56-1.46-.84l2.93,8.35C92,47.26,48.28,88.31,26.11,65.33c-.3-.31-.6-.62-.89-1C16.65,54.55,21,39.75,28.39,26.61,40.88,4.43,58.56.2,59,.1,57.89,0,56.8,0,55.7,0a55.5,55.5,0,0,0-6.49,110.61,69.44,69.44,0,0,1,1.33-9,67.47,67.47,0,0,1,14-29C75.93,59,88.19,58,93.23,65.21c2.31,3.29,3.11,8.29,1.62,14.56-4,16.88-23.94,27.58-29.9,30.45A55.5,55.5,0,0,0,84.42,8Z" transform="translate(-0.21)" fill="url(#d)"/><path d="M35.81,48.43a57.59,57.59,0,0,1,2.55-19.24,55.53,55.53,0,0,0-7.9,4.33,95.4,95.4,0,0,0-2.63,19.06c-.08,2-.1,3.93-.09,5.8A28,28,0,0,1,35.81,48.43Z" transform="translate(-0.21)" fill="#fff" style="mix-blend-mode:soft-light"/><path d="M42,19.85A77.74,77.74,0,0,1,53.52,2.17a52.16,52.16,0,0,0-14.06,9.91,68,68,0,0,0-5.68,11.09A85.19,85.19,0,0,1,42,19.85Z" transform="translate(-0.21)" fill="#fff" style="mix-blend-mode:soft-light"/><path d="M65,110.24l1.73-.86-.17-3.87a35.15,35.15,0,0,1-6.38-2.76c-2.83,1.12-6,1-9.58-1.13-.53,2.46-.87,4.68-1.1,6.62a41.85,41.85,0,0,0,5,2.74c.42,0,.84,0,1.26,0A56.2,56.2,0,0,0,65,110.24Z" transform="translate(-0.21)" fill="#fff" style="mix-blend-mode:soft-light"/><path d="M65,110.24c.59-.1,1.17-.21,1.75-.33l0-.53Z" transform="translate(-0.21)" fill="#fff" style="mix-blend-mode:soft-light"/><path d="M51.46,96.2a87.3,87.3,0,0,1-13.23,1.23,41.2,41.2,0,0,0,11.23,10.81c.23-1.94.57-4.16,1.1-6.62.35-1.59.77-3.28,1.29-5Z" transform="translate(-0.21)" fill="#fff" style="mix-blend-mode:soft-light"/><path d="M44.83,87.66a57.27,57.27,0,0,1-6.34-15.85,20.6,20.6,0,0,1-10.32-4.58A71.08,71.08,0,0,0,32.62,87,66.85,66.85,0,0,0,44.83,87.66Z" transform="translate(-0.21)" fill="#fff" style="mix-blend-mode:soft-light"/><path d="M39.46,12.08A52.16,52.16,0,0,1,53.52,2.17C54.14,1.46,54.78.74,55.44,0A54.54,54.54,0,0,0,49,.44,62.46,62.46,0,0,0,39.46,12.08Z" transform="translate(-0.21)" fill="#fff" style="mix-blend-mode:soft-light"/><path d="M74.87,14.06a61.91,61.91,0,0,1,8.08.6A65.86,65.86,0,0,0,71.74,2.38,55.71,55.71,0,0,0,61,.3,77.06,77.06,0,0,1,74.87,14.06Z" transform="translate(-0.21)" fill="#fff" style="mix-blend-mode:soft-light"/><path d="M82.12,25.16l-.29-.06.14.28Z" transform="translate(-0.21)" fill="#fff" style="mix-blend-mode:soft-light"/><path d="M89.37,67.25a58.46,58.46,0,0,1-1,7.71,74.58,74.58,0,0,0,6.8-5.42,12.63,12.63,0,0,0-1.89-4.31A17.71,17.71,0,0,0,89.37,67.25Z" transform="translate(-0.21)" fill="#fff" style="mix-blend-mode:soft-light"/><path d="M66.48,104.54l0,1a20.58,20.58,0,0,0,3.2.79l.23,1.3c8.28-4.74,21.68-14.29,24.91-27.81.21-.89.37-1.74.49-2.57a71.54,71.54,0,0,1-9.85,7C78.89,100,66.48,104.54,66.48,104.54Z" transform="translate(-0.21)" fill="#fff" style="mix-blend-mode:soft-light"/><path d="M95.35,77.22c-.12.83-.28,1.68-.49,2.57C91.63,93.31,78.23,102.86,70,107.6l.26,1.48A55,55,0,0,0,88,100.64c5.45-6.07,9.87-14.72,11-26.8Q97.3,75.55,95.35,77.22Z" transform="translate(-0.21)" fill="#fff" style="mix-blend-mode:soft-light"/><path d="M85,32.51a43.54,43.54,0,0,1,2.48,11A92.38,92.38,0,0,1,89.54,62a10.16,10.16,0,0,1,3.71,3.23,12.63,12.63,0,0,1,1.89,4.31c1.37-1.24,2.75-2.57,4.11-4A99.11,99.11,0,0,0,95.77,43a98.49,98.49,0,0,0-5.37-15.3c-1.32-.54-2.71-1-4.19-1.51A43.34,43.34,0,0,1,85,32.51Z" transform="translate(-0.21)" fill="#fff" style="mix-blend-mode:soft-light"/><path d="M66.52,105.51l.17,3.87c1-.49,2-1.08,3.26-1.78l-.23-1.3A20.58,20.58,0,0,1,66.52,105.51Z" transform="translate(-0.21)" fill="#fff" style="mix-blend-mode:soft-light"/><path d="M66.52,105.51l.17,3.87c1-.49,2-1.08,3.26-1.78l-.23-1.3A20.58,20.58,0,0,1,66.52,105.51Z" transform="translate(-0.21)" fill="#fff" style="mix-blend-mode:soft-light"/><path d="M66.71,109.91c1.19-.24,2.35-.52,3.5-.83L70,107.6c-1.21.7-2.31,1.29-3.26,1.78Z" transform="translate(-0.21)" fill="#fff" style="mix-blend-mode:soft-light"/><path d="M66.71,109.91c1.19-.24,2.35-.52,3.5-.83L70,107.6c-1.21.7-2.31,1.29-3.26,1.78Z" transform="translate(-0.21)" fill="#fff" style="mix-blend-mode:soft-light"/><path d="M33.78,23.17C32.1,24,30.51,24.78,29,25.63c-.19.33-.39.66-.58,1a73.3,73.3,0,0,0-5.86,13,65.08,65.08,0,0,1,7.91-6.09A76.22,76.22,0,0,1,33.78,23.17Z" transform="translate(-0.21)" fill="#fff" style="mix-blend-mode:soft-light"/><path d="M85.91,15.53l-.14-.4c-.92-.18-1.86-.34-2.82-.47.81,1.14,1.61,2.34,2.39,3.59A21.58,21.58,0,0,0,85.91,15.53Z" transform="translate(-0.21)" fill="#fff" style="mix-blend-mode:soft-light"/><path d="M49.4,17.57c-2.63.69-5.1,1.46-7.45,2.28a68.32,68.32,0,0,0-3.59,9.34,36.52,36.52,0,0,1,11.55-3.3c13.16-2.75,23.63-2.56,31.92-.79a66.87,66.87,0,0,0-7-11A95.63,95.63,0,0,0,49.4,17.57Z" transform="translate(-0.21)" fill="#fff" style="mix-blend-mode:soft-light"/><path d="M85.91,15.53a33,33,0,0,1,.54,4.55,81.76,81.76,0,0,1,4,7.66c12.77,5.29,18.25,14.4,19.92,17.8A55.32,55.32,0,0,0,97.46,19a47.2,47.2,0,0,0-11.64-3.81Z" transform="translate(-0.21)" fill="#fff" style="mix-blend-mode:soft-light"/><path d="M1.92,67.53c6.5-12.87,13.76-21.77,20.63-27.92a73.3,73.3,0,0,1,5.86-13c.19-.34.39-.67.58-1C8.32,37.24,2.47,54.15.83,63.72c.13.89.29,1.77.46,2.65C1.47,66.72,1.68,67.11,1.92,67.53Z" transform="translate(-0.21)" fill="#fff" style="mix-blend-mode:soft-light"/><path d="M85.82,15.14h0l.14.4Z" transform="translate(-0.21)" fill="#fff" style="mix-blend-mode:soft-light"/><path d="M42,19.85a85.19,85.19,0,0,0-8.17,3.32,76.22,76.22,0,0,0-3.32,10.35,55.53,55.53,0,0,1,7.9-4.33A68.32,68.32,0,0,1,42,19.85Z" transform="translate(-0.21)" fill="#fff" style="mix-blend-mode:soft-light"/><path d="M42,19.85a85.19,85.19,0,0,0-8.17,3.32,76.22,76.22,0,0,0-3.32,10.35,55.53,55.53,0,0,1,7.9-4.33A68.32,68.32,0,0,1,42,19.85Z" transform="translate(-0.21)" fill="#fff" style="mix-blend-mode:soft-light"/><path d="M82.12,25.16a22.56,22.56,0,0,0,3.22-6.91C84.56,17,83.76,15.8,83,14.66a61.91,61.91,0,0,0-8.08-.6,66.87,66.87,0,0,1,7,11Z" transform="translate(-0.21)" fill="#fff" style="mix-blend-mode:soft-light"/><path d="M82.12,25.16a22.56,22.56,0,0,0,3.22-6.91C84.56,17,83.76,15.8,83,14.66a61.91,61.91,0,0,0-8.08-.6,66.87,66.87,0,0,1,7,11Z" transform="translate(-0.21)" fill="#fff" style="mix-blend-mode:soft-light"/><path d="M86.21,26.23c1.48.46,2.87,1,4.19,1.51a81.76,81.76,0,0,0-4-7.66A37.31,37.31,0,0,1,86.21,26.23Z" transform="translate(-0.21)" fill="#fff" style="mix-blend-mode:soft-light"/><path d="M86.21,26.23c1.48.46,2.87,1,4.19,1.51a81.76,81.76,0,0,0-4-7.66A37.31,37.31,0,0,1,86.21,26.23Z" transform="translate(-0.21)" fill="#fff" style="mix-blend-mode:soft-light"/><path d="M71.49,90.92a84.13,84.13,0,0,0,14-6.65A48.61,48.61,0,0,0,88.34,75a66.07,66.07,0,0,1-10.81,6.16C75.46,84.41,73.48,87.8,71.49,90.92Z" transform="translate(-0.21)" fill="#fff" style="mix-blend-mode:soft-light"/><path d="M44.83,87.66a44.2,44.2,0,0,0,6.63,8.54l.53-.09a69.64,69.64,0,0,1,3.63-9.46A88.31,88.31,0,0,1,44.83,87.66Z" transform="translate(-0.21)" fill="#fff" style="mix-blend-mode:soft-light"/><path d="M111,50.05a87.34,87.34,0,0,1-11.7,15.49,67.78,67.78,0,0,1-.24,8.3,62,62,0,0,0,12.18-17.15c0-.39,0-.78,0-1.17C111.22,53.67,111.13,51.85,111,50.05Z" transform="translate(-0.21)" fill="#fff" style="mix-blend-mode:soft-light"/><path d="M38.23,97.43A50,50,0,0,1,32.62,87C13.54,84,5,72.87,1.92,67.53c-.08.18-.17.36-.26.54A55.29,55.29,0,0,0,14.73,92.91C20.94,95.76,28.67,97.54,38.23,97.43Z" transform="translate(-0.21)" fill="#fff" style="mix-blend-mode:soft-light"/><path d="M44.83,87.66A66.85,66.85,0,0,1,32.62,87a50,50,0,0,0,5.61,10.48A87.3,87.3,0,0,0,51.46,96.2,44.2,44.2,0,0,1,44.83,87.66Z" transform="translate(-0.21)" fill="#fff" style="mix-blend-mode:soft-light"/><path d="M44.83,87.66A66.85,66.85,0,0,1,32.62,87a50,50,0,0,0,5.61,10.48A87.3,87.3,0,0,0,51.46,96.2,44.2,44.2,0,0,1,44.83,87.66Z" transform="translate(-0.21)" fill="#fff" style="mix-blend-mode:soft-light"/><path d="M95.14,69.54A74.58,74.58,0,0,1,88.34,75a48.61,48.61,0,0,1-2.84,9.31,71.54,71.54,0,0,0,9.85-7A20.2,20.2,0,0,0,95.14,69.54Z" transform="translate(-0.21)" fill="#fff" style="mix-blend-mode:soft-light"/><path d="M95.14,69.54A74.58,74.58,0,0,1,88.34,75a48.61,48.61,0,0,1-2.84,9.31,71.54,71.54,0,0,0,9.85-7A20.2,20.2,0,0,0,95.14,69.54Z" transform="translate(-0.21)" fill="#fff" style="mix-blend-mode:soft-light"/><path d="M99.25,65.54c-1.36,1.43-2.74,2.76-4.11,4a20.2,20.2,0,0,1,.21,7.68q2-1.66,3.66-3.38A67.78,67.78,0,0,0,99.25,65.54Z" transform="translate(-0.21)" fill="#fff" style="mix-blend-mode:soft-light"/><path d="M99.25,65.54c-1.36,1.43-2.74,2.76-4.11,4a20.2,20.2,0,0,1,.21,7.68q2-1.66,3.66-3.38A67.78,67.78,0,0,0,99.25,65.54Z" transform="translate(-0.21)" fill="#fff" style="mix-blend-mode:soft-light"/><path d="M1.66,68.07c.09-.18.18-.36.26-.54-.24-.42-.45-.81-.63-1.16C1.41,66.94,1.53,67.51,1.66,68.07Z" transform="translate(-0.21)" fill="#fff" style="mix-blend-mode:soft-light"/><path d="M1.66,68.07c.09-.18.18-.36.26-.54-.24-.42-.45-.81-.63-1.16C1.41,66.94,1.53,67.51,1.66,68.07Z" transform="translate(-0.21)" fill="#fff" style="mix-blend-mode:soft-light"/></g></svg>